<?xml version="1.0" standalone="no"?>
<!DOCTYPE svg PUBLIC "-//W3C//DTD SVG 20010904//EN"
 "http://www.w3.org/TR/2001/REC-SVG-20010904/DTD/svg10.dtd">
<svg version="1.0" xmlns="http://www.w3.org/2000/svg"
 width="16.000000pt" height="16.000000pt" viewBox="0 0 16.000000 16.000000"
 preserveAspectRatio="xMidYMid meet">
<metadata>
Created by potrace 1.11, written by Peter Selinger 2001-2013
</metadata>
<g transform="translate(0.000000,16.000000) scale(0.002707,-0.002707)"
fill="#000000" stroke="none">
<path d="M2670 5762 c0 -5 -15 -10 -32 -11 -77 -5 -130 -20 -125 -34 6 -18 74
-30 215 -38 24 -2 45 -7 48 -11 3 -5 10 -6 15 -3 5 4 9 -1 9 -9 0 -13 -25 -27
-55 -32 -5 -1 -13 -3 -17 -4 -16 -5 -24 -7 -73 -14 -27 -4 -61 -9 -74 -11 -12
-2 -60 -7 -105 -10 -110 -8 -163 -14 -271 -30 -93 -14 -303 -92 -313 -117 -2
-4 -8 -8 -14 -8 -5 0 -42 -21 -81 -46 -74 -48 -119 -92 -114 -109 4 -11 27
-14 42 -6 6 3 21 7 35 9 13 2 28 9 32 15 4 7 8 9 8 5 0 -4 26 5 58 19 61 27
75 31 136 40 56 9 65 -14 18 -46 -20 -14 -43 -26 -50 -27 -39 -6 -138 -102
-193 -188 -57 -87 -51 -96 28 -46 60 38 95 39 121 3 24 -34 29 -48 61 -173 24
-95 30 -110 79 -194 37 -62 53 -109 67 -190 7 -45 8 -324 1 -335 -4 -6 -13 -8
-20 -5 -22 8 -92 -70 -104 -115 -14 -57 -12 -168 4 -213 7 -21 14 -42 15 -46
12 -51 72 -132 128 -172 12 -8 21 -22 21 -31 0 -10 7 -24 15 -33 9 -8 14 -19
13 -23 -1 -4 4 -26 10 -48 6 -22 14 -54 17 -72 3 -18 10 -44 15 -58 6 -15 8
-31 4 -36 -3 -5 0 -9 5 -9 6 0 10 -3 9 -7 -3 -15 25 -93 34 -93 4 0 7 -3 6 -7
-8 -38 140 -195 267 -283 28 -19 52 -38 53 -42 2 -5 10 -8 17 -8 7 0 15 -4 17
-8 2 -4 24 -20 51 -35 26 -15 47 -32 47 -37 0 -5 7 -7 15 -4 8 4 15 2 15 -2 0
-5 15 -15 33 -23 17 -8 34 -17 37 -21 8 -9 84 -44 93 -42 4 1 7 -3 7 -9 0 -5
5 -7 10 -4 12 7 12 7 12 -163 0 -139 -3 -165 -30 -222 -20 -42 -39 -63 -62
-67 -9 -1 -37 -11 -63 -22 -25 -11 -48 -17 -51 -14 -3 4 -6 1 -6 -6 0 -7 -4
-9 -10 -6 -5 3 -10 1 -10 -6 0 -7 -3 -9 -7 -6 -3 4 -15 -1 -26 -10 -11 -10
-17 -13 -14 -6 5 8 1 8 -18 0 -14 -7 -25 -15 -25 -19 0 -5 -7 -8 -15 -8 -8 0
-37 -14 -65 -30 -28 -17 -53 -30 -56 -30 -15 0 -230 -150 -308 -215 -17 -13
-33 -22 -38 -19 -4 3 -8 1 -8 -3 0 -5 -24 -27 -52 -48 -29 -22 -58 -44 -64
-50 -31 -27 -54 -44 -54 -41 0 5 -37 -25 -71 -56 -10 -10 -19 -16 -19 -14 0 5
-41 -28 -81 -65 -17 -16 -30 -22 -33 -15 -2 6 -5 3 -5 -6 -1 -10 -6 -18 -12
-18 -5 0 -24 -13 -42 -30 -18 -16 -38 -30 -45 -30 -7 0 -10 -4 -7 -10 3 -5 -1
-10 -9 -10 -9 0 -16 -4 -16 -10 0 -5 -6 -10 -13 -10 -7 0 -19 -9 -27 -20 -8
-11 -20 -20 -26 -20 -7 0 -14 -4 -16 -8 -1 -4 -35 -34 -75 -65 -66 -53 -95
-68 -92 -49 1 4 -4 23 -12 42 -7 19 -12 38 -11 43 1 4 -3 7 -8 7 -5 0 -9 3 -8
8 1 4 -5 21 -12 37 -7 17 -12 36 -11 43 1 6 -4 12 -10 12 -7 0 -9 3 -6 6 3 4
0 16 -8 26 -7 11 -11 27 -8 34 3 8 0 14 -7 14 -6 0 -9 4 -5 9 3 5 0 15 -7 23
-7 7 -13 18 -13 23 0 12 -62 183 -76 207 -5 10 -9 27 -9 38 0 24 -8 25 -38 4
-12 -8 -23 -14 -23 -12 -5 12 -5 95 0 103 3 6 6 15 7 20 1 6 17 44 37 85 48
105 51 123 27 215 -23 88 -30 114 -34 131 -1 7 -8 19 -15 28 -7 8 -10 19 -7
25 4 5 -6 19 -20 30 -26 20 -28 20 -39 3 -10 -13 -11 -30 -3 -69 6 -29 7 -69
3 -90 -5 -21 -7 -42 -6 -48 2 -5 -1 -7 -5 -3 -4 4 -13 0 -20 -10 -9 -11 -13
-13 -14 -4 0 7 -4 11 -10 7 -12 -7 -60 34 -60 52 0 7 -5 13 -11 13 -5 0 -7 5
-4 10 3 6 1 10 -5 10 -6 0 -9 4 -6 9 3 5 -1 11 -9 15 -8 3 -12 12 -9 21 4 8 1
15 -7 15 -7 0 -9 3 -6 7 4 3 3 11 -2 17 -4 6 -20 47 -36 91 -32 93 -63 145
-87 145 -10 0 -18 -5 -18 -11 0 -6 -7 -9 -16 -7 -8 2 -14 7 -12 11 2 5 -5 13
-16 19 -22 13 -44 -5 -49 -42 -3 -18 -12 -26 -32 -30 -16 -3 -27 -8 -24 -11 2
-4 -4 -16 -13 -26 -12 -13 -15 -22 -7 -30 14 -14 19 -67 6 -74 -15 -10 -17
-80 -3 -85 7 -3 13 -11 13 -19 0 -18 51 -133 74 -167 11 -14 19 -32 19 -40 0
-7 9 -20 20 -28 11 -8 20 -19 20 -25 0 -11 54 -75 64 -75 5 0 24 -15 71 -57
30 -27 88 -103 78 -103 -4 0 -3 -4 2 -8 6 -4 18 -22 27 -40 17 -32 17 -32 -10
-49 -15 -9 -28 -18 -30 -19 -2 -1 4 -16 13 -33 8 -17 13 -31 11 -31 -3 0 10
-45 29 -100 19 -55 31 -100 28 -100 -3 0 -1 -6 5 -12 8 -10 30 -78 35 -108 0
-3 6 -16 13 -29 7 -13 10 -30 7 -37 -3 -8 0 -14 6 -14 6 0 11 -11 11 -24 0
-14 5 -28 11 -31 6 -4 8 -13 5 -21 -3 -7 -1 -16 3 -18 5 -3 16 -34 26 -68 9
-35 21 -67 25 -73 5 -5 8 -14 8 -18 0 -17 25 -67 34 -67 5 0 7 -4 4 -9 -9 -14
66 -67 99 -69 17 -2 44 4 60 12 17 9 36 16 43 16 6 0 12 5 12 12 0 6 3 9 6 6
5 -6 140 56 194 88 14 8 33 18 43 21 9 3 17 9 17 14 0 5 7 6 15 3 8 -4 15 -1
15 5 0 6 3 10 7 10 13 -3 73 25 73 33 0 4 9 8 20 8 11 0 20 5 20 12 0 6 3 9 6
5 3 -3 24 5 45 19 21 13 39 21 39 18 0 -4 8 0 18 9 10 10 22 14 25 10 4 -3 7
-2 7 3 0 6 32 25 70 44 39 19 70 38 70 43 0 4 5 5 10 2 6 -3 10 -1 10 5 0 6 5
8 10 5 6 -3 10 -2 10 2 0 5 12 14 28 21 47 20 123 68 133 83 5 8 9 10 9 5 0
-5 7 -3 15 4 9 7 17 11 19 9 5 -4 13 -75 22 -174 6 -75 11 -135 19 -205 7 -75
14 -151 21 -235 3 -38 7 -92 9 -120 15 -188 27 -415 29 -550 l1 -100 715 0
714 0 -1 110 c-5 385 -1 681 10 691 10 11 18 0 22 -32 2 -16 4 -29 5 -29 1 0
4 -12 14 -60 1 -5 5 -16 10 -23 4 -7 6 -16 3 -19 -3 -3 -1 -17 5 -32 6 -14 14
-42 18 -61 11 -45 20 -81 39 -150 41 -143 43 -165 50 -382 1 -16 14 -18 127
-18 l125 0 -3 105 c-2 58 0 105 3 105 14 0 7 76 -16 180 -6 28 -24 131 -30
172 -4 24 -22 140 -41 253 -3 22 -8 51 -10 65 -1 14 -5 34 -7 45 -3 12 -9 48
-13 80 -8 63 -10 73 -13 78 -2 1 -4 18 -6 38 -1 20 -5 45 -9 55 -3 10 -8 39
-12 64 -3 25 -7 54 -9 65 -2 11 -6 36 -10 55 -3 19 -8 46 -12 60 -3 14 -6 28
-5 33 1 4 -2 26 -7 50 -15 65 -22 99 -26 132 -3 17 -16 80 -30 140 -15 61 -28
115 -29 122 -1 7 -5 16 -9 19 -4 4 -7 15 -7 24 0 17 -58 75 -66 67 -3 -3 -16
6 -29 19 -13 13 -35 26 -49 30 -14 3 -26 10 -26 14 0 4 -11 11 -25 14 -14 4
-25 11 -25 17 0 6 -4 7 -10 4 -5 -3 -10 -1 -10 4 0 6 -8 11 -18 11 -10 0 -27
7 -38 15 -12 8 -24 11 -28 8 -3 -3 -6 -2 -6 4 0 5 -19 16 -42 23 -24 8 -47 17
-53 20 -8 6 -72 29 -95 35 -22 6 -39 19 -34 26 3 5 1 9 -4 9 -8 0 -30 43 -36
70 -1 3 -4 10 -7 15 -3 6 -7 76 -8 156 -2 124 0 149 14 163 9 9 25 16 36 16
10 0 19 3 19 8 0 4 20 16 45 27 25 11 45 23 45 28 0 4 5 5 10 2 6 -3 10 -1 10
5 0 6 4 9 9 6 5 -4 11 -3 13 1 1 5 34 28 72 53 38 24 75 50 82 58 8 7 14 11
14 7 0 -4 6 0 14 7 25 24 56 48 56 44 0 -3 20 14 44 37 25 23 58 53 75 66 16
14 28 28 25 33 -3 4 2 8 11 8 11 0 15 5 11 15 -3 8 -2 14 2 12 4 -1 17 8 30
21 12 12 19 22 16 22 -3 0 4 13 15 29 28 39 82 207 94 292 2 9 10 24 20 33 9
10 20 29 23 44 12 57 26 92 33 87 5 -2 24 13 44 35 19 22 32 40 29 40 -4 0 -2
4 4 8 13 9 55 107 60 141 10 62 12 147 3 163 -5 9 -10 28 -11 42 -1 14 -8 28
-16 31 -7 3 -12 8 -9 12 2 5 -7 18 -20 30 -13 12 -23 20 -23 17 0 -3 -6 1 -14
9 -10 9 -13 30 -11 63 2 27 4 49 5 49 0 0 3 18 5 40 4 39 12 80 15 80 1 0 3
10 6 23 2 12 13 48 23 80 50 148 78 296 75 398 -3 123 -78 335 -157 448 -66
92 -127 134 -127 87 0 -11 4 -22 9 -26 14 -8 -6 -67 -26 -79 -45 -25 -110 -24
-178 3 -77 31 -153 80 -217 140 -32 31 -81 67 -141 103 -34 21 -67 42 -73 47
-7 5 -15 7 -18 4 -3 -4 -6 -1 -6 5 0 7 -3 11 -7 10 -5 -1 -26 6 -48 16 -22 10
-49 22 -60 27 -74 32 -314 84 -375 81 -20 -1 -22 0 -10 8 9 6 10 10 3 10 -6 0
-15 -4 -18 -10 -3 -5 -12 -10 -18 -10 -7 0 -6 4 3 10 10 7 -24 10 -105 10 -81
0 -115 -3 -105 -10 8 -5 10 -10 5 -10 -6 0 -17 6 -23 12 -10 10 -15 10 -21 -1
-6 -9 -11 -10 -15 -2 -8 13 -26 15 -26 3z"/>
</g>
</svg>
